<mxfile host="Electron" modified="2024-05-29T02:35:12.217Z" agent="Mozilla/5.0 (Macintosh; Intel Mac OS X 10_15_7) AppleWebKit/537.36 (KHTML, like Gecko) draw.io/24.4.8 Chrome/124.0.6367.207 Electron/30.0.6 Safari/537.36" etag="RcAeVVtxiqjnTFKEFDZq" version="24.4.8" type="device" pages="3">
  <diagram name="HostFunctions-ByteEfficient" id="sdQQm1VOS9OuC6hEkeB7">
    <mxGraphModel dx="1694" dy="502" grid="1" gridSize="10" guides="1" tooltips="1" connect="1" arrows="1" fold="1" page="1" pageScale="1" pageWidth="850" pageHeight="1100" math="0" shadow="0">
      <root>
        <mxCell id="0" />
        <mxCell id="1" parent="0" />
        <mxCell id="uC0YP84fZPbtQVnWxb8X-2" value="&lt;h1&gt;&lt;span style=&quot;background-color: initial;&quot;&gt;Host Function Calls&lt;/span&gt;&lt;/h1&gt;&lt;h1&gt;&lt;span style=&quot;background-color: initial; font-size: 12px; font-weight: normal;&quot;&gt;Calling functions on the host should be abstracted into each language&#39;s Ubiquitous SDK&lt;br&gt;However, a data format must be defined for how to pass data in and out of the language.&lt;br&gt;The WASM language essentially gives you a pointer to send and receive data, and you can intepret that with &quot;read a string&quot; or &quot;read a byte array&quot; type interfaces.&amp;nbsp; &amp;nbsp;So we need to define a pattern for the bytes to allow isomorphic calls with different data layouts (eg. we want to be able to send either messagepack or json, for smaller payloads, and so each language can use the implementation that&#39;s faster for it).&lt;/span&gt;&lt;br&gt;&lt;/h1&gt;&lt;div&gt;&lt;span style=&quot;background-color: initial; font-size: 12px; font-weight: normal;&quot;&gt;Another thing we want to support is polymorphism on the host side.&amp;nbsp; We don&#39;t want to define a static calling interface, because that requires a separate host implementation versioning and typing updates for all implementers.&amp;nbsp; It&#39;s much simpler to have a single host function for dispatch so that the plugin interface never changes, and then version the calls and provide function dispatch across that boundary.&amp;nbsp; So that must be encoded in the header too.&lt;/span&gt;&lt;/div&gt;&lt;div&gt;&lt;span style=&quot;background-color: initial; font-size: 12px; font-weight: normal;&quot;&gt;&lt;br&gt;&lt;/span&gt;&lt;/div&gt;&lt;div&gt;&lt;span style=&quot;background-color: initial; font-size: 12px; font-weight: normal;&quot;&gt;Many file formats have a fixed header (eg `ubiq`) but this is unnecessary overhead because we already know that the host function registration of a `ubiq-dispatch` function ensures that the protocol handshake will be expected.&lt;br&gt;&lt;br&gt;The data length is not needed as a parameter, because the outer host function implementation ensures that the data is constrained (is this true?)&lt;/span&gt;&lt;/div&gt;" style="text;html=1;spacing=5;spacingTop=-20;whiteSpace=wrap;overflow=hidden;rounded=0;" parent="1" vertex="1">
          <mxGeometry x="80" y="110" width="520" height="450" as="geometry" />
        </mxCell>
        <mxCell id="uC0YP84fZPbtQVnWxb8X-3" value="Method Definition" style="rounded=0;whiteSpace=wrap;html=1;" parent="1" vertex="1">
          <mxGeometry x="120" y="620" width="240" height="30" as="geometry" />
        </mxCell>
        <mxCell id="uC0YP84fZPbtQVnWxb8X-4" value="3 bytes" style="verticalLabelPosition=top;shadow=0;dashed=0;align=center;html=1;verticalAlign=bottom;strokeWidth=1;shape=mxgraph.mockup.markup.curlyBrace;whiteSpace=wrap;strokeColor=#999999;labelPosition=center;" parent="1" vertex="1">
          <mxGeometry x="120" y="600" width="240" height="20" as="geometry" />
        </mxCell>
        <mxCell id="uC0YP84fZPbtQVnWxb8X-6" value="Namespace" style="rounded=0;whiteSpace=wrap;html=1;" parent="1" vertex="1">
          <mxGeometry x="120" y="650" width="80" height="30" as="geometry" />
        </mxCell>
        <mxCell id="uC0YP84fZPbtQVnWxb8X-7" value="Method" style="rounded=0;whiteSpace=wrap;html=1;" parent="1" vertex="1">
          <mxGeometry x="200" y="650" width="80" height="30" as="geometry" />
        </mxCell>
        <mxCell id="uC0YP84fZPbtQVnWxb8X-8" value="Version" style="rounded=0;whiteSpace=wrap;html=1;" parent="1" vertex="1">
          <mxGeometry x="280" y="650" width="80" height="30" as="geometry" />
        </mxCell>
        <mxCell id="uC0YP84fZPbtQVnWxb8X-9" value="n bytes" style="verticalLabelPosition=top;shadow=0;dashed=0;align=center;html=1;verticalAlign=bottom;strokeWidth=1;shape=mxgraph.mockup.markup.curlyBrace;whiteSpace=wrap;strokeColor=#999999;labelPosition=center;" parent="1" vertex="1">
          <mxGeometry x="360" y="600" width="160" height="20" as="geometry" />
        </mxCell>
        <mxCell id="uC0YP84fZPbtQVnWxb8X-11" value="Payload" style="rounded=0;whiteSpace=wrap;html=1;" parent="1" vertex="1">
          <mxGeometry x="360" y="620" width="160" height="30" as="geometry" />
        </mxCell>
        <mxCell id="uC0YP84fZPbtQVnWxb8X-16" value="" style="group" parent="1" vertex="1" connectable="0">
          <mxGeometry x="120" y="680" width="80" height="40" as="geometry" />
        </mxCell>
        <mxCell id="uC0YP84fZPbtQVnWxb8X-14" value="" style="verticalLabelPosition=top;shadow=0;dashed=0;align=center;verticalAlign=bottom;strokeWidth=1;shape=mxgraph.mockup.markup.curlyBrace;whiteSpace=wrap;strokeColor=#999999;labelPosition=center;rotation=-180;horizontal=1;textDirection=ltr;html=1;" parent="uC0YP84fZPbtQVnWxb8X-16" vertex="1">
          <mxGeometry width="80" height="20" as="geometry" />
        </mxCell>
        <mxCell id="uC0YP84fZPbtQVnWxb8X-15" value="1 byte" style="text;html=1;align=center;verticalAlign=middle;whiteSpace=wrap;rounded=0;" parent="uC0YP84fZPbtQVnWxb8X-16" vertex="1">
          <mxGeometry y="10" width="80" height="30" as="geometry" />
        </mxCell>
        <mxCell id="uC0YP84fZPbtQVnWxb8X-18" value="" style="group" parent="1" vertex="1" connectable="0">
          <mxGeometry x="200" y="680" width="80" height="40" as="geometry" />
        </mxCell>
        <mxCell id="uC0YP84fZPbtQVnWxb8X-19" value="" style="verticalLabelPosition=top;shadow=0;dashed=0;align=center;verticalAlign=bottom;strokeWidth=1;shape=mxgraph.mockup.markup.curlyBrace;whiteSpace=wrap;strokeColor=#999999;labelPosition=center;rotation=-180;horizontal=1;textDirection=ltr;html=1;" parent="uC0YP84fZPbtQVnWxb8X-18" vertex="1">
          <mxGeometry width="80" height="20" as="geometry" />
        </mxCell>
        <mxCell id="uC0YP84fZPbtQVnWxb8X-20" value="1 byte" style="text;html=1;align=center;verticalAlign=middle;whiteSpace=wrap;rounded=0;" parent="uC0YP84fZPbtQVnWxb8X-18" vertex="1">
          <mxGeometry y="10" width="80" height="30" as="geometry" />
        </mxCell>
        <mxCell id="uC0YP84fZPbtQVnWxb8X-22" value="Interop Version" style="rounded=0;whiteSpace=wrap;html=1;" parent="1" vertex="1">
          <mxGeometry x="-40" y="620" width="80" height="30" as="geometry" />
        </mxCell>
        <mxCell id="uC0YP84fZPbtQVnWxb8X-24" value="1 byte" style="verticalLabelPosition=top;shadow=0;dashed=0;align=center;html=1;verticalAlign=bottom;strokeWidth=1;shape=mxgraph.mockup.markup.curlyBrace;whiteSpace=wrap;strokeColor=#999999;labelPosition=center;" parent="1" vertex="1">
          <mxGeometry x="-40" y="600" width="80" height="20" as="geometry" />
        </mxCell>
        <mxCell id="uC0YP84fZPbtQVnWxb8X-49" value="Assets" style="childLayout=tableLayout;recursiveResize=0;shadow=1;fillStyle=auto;" parent="1" vertex="1">
          <mxGeometry x="-40" y="740" width="840" height="319.9999999999998" as="geometry" />
        </mxCell>
        <mxCell id="uC0YP84fZPbtQVnWxb8X-50" style="shape=tableRow;horizontal=0;startSize=0;swimlaneHead=0;swimlaneBody=0;top=0;left=0;bottom=0;right=0;dropTarget=0;collapsible=0;recursiveResize=0;expand=0;fontStyle=0;strokeColor=inherit;fillColor=#ffffff;" parent="uC0YP84fZPbtQVnWxb8X-49" vertex="1">
          <mxGeometry width="840" height="36" as="geometry" />
        </mxCell>
        <mxCell id="uC0YP84fZPbtQVnWxb8X-51" value="Property" style="connectable=0;recursiveResize=0;strokeColor=inherit;fillColor=#A7C942;align=center;fontStyle=1;fontColor=#FFFFFF;html=1;" parent="uC0YP84fZPbtQVnWxb8X-50" vertex="1">
          <mxGeometry width="242" height="36" as="geometry">
            <mxRectangle width="242" height="36" as="alternateBounds" />
          </mxGeometry>
        </mxCell>
        <mxCell id="uC0YP84fZPbtQVnWxb8X-52" value="Description" style="connectable=0;recursiveResize=0;strokeColor=inherit;fillColor=#A7C942;align=center;fontStyle=1;fontColor=#FFFFFF;html=1;" parent="uC0YP84fZPbtQVnWxb8X-50" vertex="1">
          <mxGeometry x="242" width="323" height="36" as="geometry">
            <mxRectangle width="323" height="36" as="alternateBounds" />
          </mxGeometry>
        </mxCell>
        <mxCell id="uC0YP84fZPbtQVnWxb8X-53" value="Valid Values" style="connectable=0;recursiveResize=0;strokeColor=inherit;fillColor=#A7C942;align=center;fontStyle=1;fontColor=#FFFFFF;html=1;" parent="uC0YP84fZPbtQVnWxb8X-50" vertex="1">
          <mxGeometry x="565" width="275" height="36" as="geometry">
            <mxRectangle width="275" height="36" as="alternateBounds" />
          </mxGeometry>
        </mxCell>
        <mxCell id="uC0YP84fZPbtQVnWxb8X-54" value="" style="shape=tableRow;horizontal=0;startSize=0;swimlaneHead=0;swimlaneBody=0;top=0;left=0;bottom=0;right=0;dropTarget=0;collapsible=0;recursiveResize=0;expand=0;fontStyle=0;strokeColor=inherit;fillColor=#ffffff;" parent="uC0YP84fZPbtQVnWxb8X-49" vertex="1">
          <mxGeometry y="36" width="840" height="35" as="geometry" />
        </mxCell>
        <mxCell id="uC0YP84fZPbtQVnWxb8X-55" value="Interop Version" style="connectable=0;recursiveResize=0;strokeColor=inherit;fillColor=inherit;align=center;whiteSpace=wrap;html=1;" parent="uC0YP84fZPbtQVnWxb8X-54" vertex="1">
          <mxGeometry width="242" height="35" as="geometry">
            <mxRectangle width="242" height="35" as="alternateBounds" />
          </mxGeometry>
        </mxCell>
        <mxCell id="uC0YP84fZPbtQVnWxb8X-56" value="The version of the interop protocol" style="connectable=0;recursiveResize=0;strokeColor=inherit;fillColor=inherit;align=center;whiteSpace=wrap;html=1;" parent="uC0YP84fZPbtQVnWxb8X-54" vertex="1">
          <mxGeometry x="242" width="323" height="35" as="geometry">
            <mxRectangle width="323" height="35" as="alternateBounds" />
          </mxGeometry>
        </mxCell>
        <mxCell id="uC0YP84fZPbtQVnWxb8X-57" value="0" style="connectable=0;recursiveResize=0;strokeColor=inherit;fillColor=inherit;align=center;whiteSpace=wrap;html=1;" parent="uC0YP84fZPbtQVnWxb8X-54" vertex="1">
          <mxGeometry x="565" width="275" height="35" as="geometry">
            <mxRectangle width="275" height="35" as="alternateBounds" />
          </mxGeometry>
        </mxCell>
        <mxCell id="uC0YP84fZPbtQVnWxb8X-58" value="" style="shape=tableRow;horizontal=0;startSize=0;swimlaneHead=0;swimlaneBody=0;top=0;left=0;bottom=0;right=0;dropTarget=0;collapsible=0;recursiveResize=0;expand=0;fontStyle=1;strokeColor=inherit;fillColor=#EAF2D3;" parent="uC0YP84fZPbtQVnWxb8X-49" vertex="1">
          <mxGeometry y="71" width="840" height="34" as="geometry" />
        </mxCell>
        <mxCell id="uC0YP84fZPbtQVnWxb8X-59" value="Encoding&lt;span style=&quot;white-space: pre;&quot;&gt;&#x9;&lt;/span&gt;" style="connectable=0;recursiveResize=0;strokeColor=inherit;fillColor=inherit;whiteSpace=wrap;html=1;" parent="uC0YP84fZPbtQVnWxb8X-58" vertex="1">
          <mxGeometry width="242" height="34" as="geometry">
            <mxRectangle width="242" height="34" as="alternateBounds" />
          </mxGeometry>
        </mxCell>
        <mxCell id="uC0YP84fZPbtQVnWxb8X-60" value="The encoding of the data payload" style="connectable=0;recursiveResize=0;strokeColor=inherit;fillColor=inherit;whiteSpace=wrap;html=1;" parent="uC0YP84fZPbtQVnWxb8X-58" vertex="1">
          <mxGeometry x="242" width="323" height="34" as="geometry">
            <mxRectangle width="323" height="34" as="alternateBounds" />
          </mxGeometry>
        </mxCell>
        <mxCell id="uC0YP84fZPbtQVnWxb8X-61" value="0 = JSON, 1 = messagepack" style="connectable=0;recursiveResize=0;strokeColor=inherit;fillColor=inherit;whiteSpace=wrap;html=1;" parent="uC0YP84fZPbtQVnWxb8X-58" vertex="1">
          <mxGeometry x="565" width="275" height="34" as="geometry">
            <mxRectangle width="275" height="34" as="alternateBounds" />
          </mxGeometry>
        </mxCell>
        <mxCell id="uC0YP84fZPbtQVnWxb8X-62" value="" style="shape=tableRow;horizontal=0;startSize=0;swimlaneHead=0;swimlaneBody=0;top=0;left=0;bottom=0;right=0;dropTarget=0;collapsible=0;recursiveResize=0;expand=0;fontStyle=0;strokeColor=inherit;fillColor=#ffffff;" parent="uC0YP84fZPbtQVnWxb8X-49" vertex="1">
          <mxGeometry y="105" width="840" height="59" as="geometry" />
        </mxCell>
        <mxCell id="uC0YP84fZPbtQVnWxb8X-63" value="Namespace" style="connectable=0;recursiveResize=0;strokeColor=inherit;fillColor=inherit;fontStyle=0;align=center;whiteSpace=wrap;html=1;" parent="uC0YP84fZPbtQVnWxb8X-62" vertex="1">
          <mxGeometry width="242" height="59" as="geometry">
            <mxRectangle width="242" height="59" as="alternateBounds" />
          </mxGeometry>
        </mxCell>
        <mxCell id="uC0YP84fZPbtQVnWxb8X-64" value="Enum value of namespace that is defined for this function class" style="connectable=0;recursiveResize=0;strokeColor=inherit;fillColor=inherit;fontStyle=0;align=center;whiteSpace=wrap;html=1;" parent="uC0YP84fZPbtQVnWxb8X-62" vertex="1">
          <mxGeometry x="242" width="323" height="59" as="geometry">
            <mxRectangle width="323" height="59" as="alternateBounds" />
          </mxGeometry>
        </mxCell>
        <mxCell id="uC0YP84fZPbtQVnWxb8X-65" value="0-254 (255 is reserved for internal test methods that are not available to the public runtime)" style="connectable=0;recursiveResize=0;strokeColor=inherit;fillColor=inherit;fontStyle=0;align=center;whiteSpace=wrap;html=1;" parent="uC0YP84fZPbtQVnWxb8X-62" vertex="1">
          <mxGeometry x="565" width="275" height="59" as="geometry">
            <mxRectangle width="275" height="59" as="alternateBounds" />
          </mxGeometry>
        </mxCell>
        <mxCell id="uC0YP84fZPbtQVnWxb8X-66" value="" style="shape=tableRow;horizontal=0;startSize=0;swimlaneHead=0;swimlaneBody=0;top=0;left=0;bottom=0;right=0;dropTarget=0;collapsible=0;recursiveResize=0;expand=0;fontStyle=1;strokeColor=inherit;fillColor=#EAF2D3;" parent="uC0YP84fZPbtQVnWxb8X-49" vertex="1">
          <mxGeometry y="164" width="840" height="34" as="geometry" />
        </mxCell>
        <mxCell id="uC0YP84fZPbtQVnWxb8X-67" value="Method" style="connectable=0;recursiveResize=0;strokeColor=inherit;fillColor=inherit;whiteSpace=wrap;html=1;" parent="uC0YP84fZPbtQVnWxb8X-66" vertex="1">
          <mxGeometry width="242" height="34" as="geometry">
            <mxRectangle width="242" height="34" as="alternateBounds" />
          </mxGeometry>
        </mxCell>
        <mxCell id="uC0YP84fZPbtQVnWxb8X-68" value="Enum value of the method that is defined" style="connectable=0;recursiveResize=0;strokeColor=inherit;fillColor=inherit;whiteSpace=wrap;html=1;" parent="uC0YP84fZPbtQVnWxb8X-66" vertex="1">
          <mxGeometry x="242" width="323" height="34" as="geometry">
            <mxRectangle width="323" height="34" as="alternateBounds" />
          </mxGeometry>
        </mxCell>
        <mxCell id="uC0YP84fZPbtQVnWxb8X-69" value="0-255&amp;nbsp;" style="connectable=0;recursiveResize=0;strokeColor=inherit;fillColor=inherit;whiteSpace=wrap;html=1;" parent="uC0YP84fZPbtQVnWxb8X-66" vertex="1">
          <mxGeometry x="565" width="275" height="34" as="geometry">
            <mxRectangle width="275" height="34" as="alternateBounds" />
          </mxGeometry>
        </mxCell>
        <mxCell id="uC0YP84fZPbtQVnWxb8X-149" style="shape=tableRow;horizontal=0;startSize=0;swimlaneHead=0;swimlaneBody=0;top=0;left=0;bottom=0;right=0;dropTarget=0;collapsible=0;recursiveResize=0;expand=0;fontStyle=1;strokeColor=inherit;fillColor=#EAF2D3;" parent="uC0YP84fZPbtQVnWxb8X-49" vertex="1">
          <mxGeometry y="198" width="840" height="72" as="geometry" />
        </mxCell>
        <mxCell id="uC0YP84fZPbtQVnWxb8X-150" value="Version" style="connectable=0;recursiveResize=0;strokeColor=inherit;fillColor=inherit;whiteSpace=wrap;html=1;" parent="uC0YP84fZPbtQVnWxb8X-149" vertex="1">
          <mxGeometry width="242" height="72" as="geometry">
            <mxRectangle width="242" height="72" as="alternateBounds" />
          </mxGeometry>
        </mxCell>
        <mxCell id="uC0YP84fZPbtQVnWxb8X-151" value="Version of method" style="connectable=0;recursiveResize=0;strokeColor=inherit;fillColor=inherit;whiteSpace=wrap;html=1;" parent="uC0YP84fZPbtQVnWxb8X-149" vertex="1">
          <mxGeometry x="242" width="323" height="72" as="geometry">
            <mxRectangle width="323" height="72" as="alternateBounds" />
          </mxGeometry>
        </mxCell>
        <mxCell id="uC0YP84fZPbtQVnWxb8X-152" value="1-255, incremented whenever the implementation of this method changes.&amp;nbsp; Previous iterations should remain for backwards compatibility unless Interop Version is incremented" style="connectable=0;recursiveResize=0;strokeColor=inherit;fillColor=inherit;whiteSpace=wrap;html=1;" parent="uC0YP84fZPbtQVnWxb8X-149" vertex="1">
          <mxGeometry x="565" width="275" height="72" as="geometry">
            <mxRectangle width="275" height="72" as="alternateBounds" />
          </mxGeometry>
        </mxCell>
        <mxCell id="uC0YP84fZPbtQVnWxb8X-153" style="shape=tableRow;horizontal=0;startSize=0;swimlaneHead=0;swimlaneBody=0;top=0;left=0;bottom=0;right=0;dropTarget=0;collapsible=0;recursiveResize=0;expand=0;fontStyle=1;strokeColor=inherit;fillColor=#EAF2D3;" parent="uC0YP84fZPbtQVnWxb8X-49" vertex="1">
          <mxGeometry y="270" width="840" height="50" as="geometry" />
        </mxCell>
        <mxCell id="uC0YP84fZPbtQVnWxb8X-154" value="Payload" style="connectable=0;recursiveResize=0;strokeColor=inherit;fillColor=inherit;whiteSpace=wrap;html=1;" parent="uC0YP84fZPbtQVnWxb8X-153" vertex="1">
          <mxGeometry width="242" height="50" as="geometry">
            <mxRectangle width="242" height="50" as="alternateBounds" />
          </mxGeometry>
        </mxCell>
        <mxCell id="uC0YP84fZPbtQVnWxb8X-155" value="The actual payload, in {Encoding} format" style="connectable=0;recursiveResize=0;strokeColor=inherit;fillColor=inherit;whiteSpace=wrap;html=1;" parent="uC0YP84fZPbtQVnWxb8X-153" vertex="1">
          <mxGeometry x="242" width="323" height="50" as="geometry">
            <mxRectangle width="323" height="50" as="alternateBounds" />
          </mxGeometry>
        </mxCell>
        <mxCell id="uC0YP84fZPbtQVnWxb8X-156" value="encoded form of a payload that can be handled by the given version of the given Method" style="connectable=0;recursiveResize=0;strokeColor=inherit;fillColor=inherit;whiteSpace=wrap;html=1;" parent="uC0YP84fZPbtQVnWxb8X-153" vertex="1">
          <mxGeometry x="565" width="275" height="50" as="geometry">
            <mxRectangle width="275" height="50" as="alternateBounds" />
          </mxGeometry>
        </mxCell>
        <mxCell id="uC0YP84fZPbtQVnWxb8X-84" value="Encoding" style="rounded=0;whiteSpace=wrap;html=1;" parent="1" vertex="1">
          <mxGeometry x="40" y="620" width="80" height="30" as="geometry" />
        </mxCell>
        <mxCell id="uC0YP84fZPbtQVnWxb8X-85" value="1 byte" style="verticalLabelPosition=top;shadow=0;dashed=0;align=center;html=1;verticalAlign=bottom;strokeWidth=1;shape=mxgraph.mockup.markup.curlyBrace;whiteSpace=wrap;strokeColor=#999999;labelPosition=center;" parent="1" vertex="1">
          <mxGeometry x="40" y="600" width="80" height="20" as="geometry" />
        </mxCell>
        <mxCell id="uC0YP84fZPbtQVnWxb8X-89" value="" style="group" parent="1" vertex="1" connectable="0">
          <mxGeometry x="280" y="680" width="80" height="40" as="geometry" />
        </mxCell>
        <mxCell id="uC0YP84fZPbtQVnWxb8X-90" value="" style="verticalLabelPosition=top;shadow=0;dashed=0;align=center;verticalAlign=bottom;strokeWidth=1;shape=mxgraph.mockup.markup.curlyBrace;whiteSpace=wrap;strokeColor=#999999;labelPosition=center;rotation=-180;horizontal=1;textDirection=ltr;html=1;" parent="uC0YP84fZPbtQVnWxb8X-89" vertex="1">
          <mxGeometry width="80" height="20" as="geometry" />
        </mxCell>
        <mxCell id="uC0YP84fZPbtQVnWxb8X-91" value="1 byte" style="text;html=1;align=center;verticalAlign=middle;whiteSpace=wrap;rounded=0;" parent="uC0YP84fZPbtQVnWxb8X-89" vertex="1">
          <mxGeometry y="10" width="80" height="30" as="geometry" />
        </mxCell>
        <mxCell id="ba7ENwL4AyIQzZOzWejb-1" value="&lt;h1&gt;design drawbacks&lt;/h1&gt;&lt;div&gt;this allows versioning of functions, but doesn&#39;t allow versioning of the function table itself.&amp;nbsp; it might be worth a few bytes to have a table version so that functions can be re-sorted. or that could be handled by the interop version.&amp;nbsp; the downside to this is if functions get moved it&#39;s gonna be a breaking change, so there will have to be a mapper for each previous table version to the new table version which will introduce some overhead.&amp;nbsp; so probably best to not rename / version methods unless necessary, and don&#39;t let the numbers be meaningful besides the namespaces themselves.&lt;span style=&quot;white-space: pre;&quot;&gt;&#x9;&lt;/span&gt;&lt;/div&gt;" style="text;html=1;spacing=5;spacingTop=-20;whiteSpace=wrap;overflow=hidden;rounded=0;" parent="1" vertex="1">
          <mxGeometry x="870" y="724" width="190" height="376" as="geometry" />
        </mxCell>
        <mxCell id="ba7ENwL4AyIQzZOzWejb-2" value="&lt;h1&gt;Thoughts&lt;/h1&gt;&lt;div&gt;Do we need to declare the input and output types of the methods? or do both sides of the protocol have shared knowledge of the data format?&lt;/div&gt;" style="text;html=1;spacing=5;spacingTop=-20;whiteSpace=wrap;overflow=hidden;rounded=0;" parent="1" vertex="1">
          <mxGeometry x="1085" y="780" width="190" height="120" as="geometry" />
        </mxCell>
      </root>
    </mxGraphModel>
  </diagram>
  <diagram id="q3XALY_MjyWCI1HmFOZX" name="HostFunctions-JSON">
    <mxGraphModel dx="2092" dy="854" grid="1" gridSize="10" guides="1" tooltips="1" connect="1" arrows="1" fold="1" page="1" pageScale="1" pageWidth="850" pageHeight="1100" math="0" shadow="0">
      <root>
        <mxCell id="0" />
        <mxCell id="1" parent="0" />
        <mxCell id="XOrSZ9edwsyi-NMTMp58-3" value="TypeSpec Files" style="swimlane;whiteSpace=wrap;html=1;" parent="1" vertex="1">
          <mxGeometry x="140" y="300" width="200" height="90" as="geometry" />
        </mxCell>
        <mxCell id="XOrSZ9edwsyi-NMTMp58-2" value="ubiquitous.keyvalue" style="rounded=0;whiteSpace=wrap;html=1;" parent="XOrSZ9edwsyi-NMTMp58-3" vertex="1">
          <mxGeometry x="40" y="40" width="120" height="30" as="geometry" />
        </mxCell>
        <mxCell id="XOrSZ9edwsyi-NMTMp58-4" value="OpenAPI Spec" style="swimlane;whiteSpace=wrap;html=1;" parent="1" vertex="1">
          <mxGeometry x="370" y="300" width="200" height="90" as="geometry" />
        </mxCell>
        <mxCell id="XOrSZ9edwsyi-NMTMp58-5" value="ubiquitous.keyvalue.yaml" style="rounded=0;whiteSpace=wrap;html=1;" parent="XOrSZ9edwsyi-NMTMp58-4" vertex="1">
          <mxGeometry x="25" y="40" width="150" height="30" as="geometry" />
        </mxCell>
        <mxCell id="XOrSZ9edwsyi-NMTMp58-6" value="Host Functions Implementation" style="swimlane;whiteSpace=wrap;html=1;" parent="1" vertex="1">
          <mxGeometry x="1190" y="40" width="200" height="200" as="geometry" />
        </mxCell>
        <mxCell id="XOrSZ9edwsyi-NMTMp58-7" value="POST /ubiq/keyvalue/read" style="rounded=0;whiteSpace=wrap;html=1;" parent="XOrSZ9edwsyi-NMTMp58-6" vertex="1">
          <mxGeometry x="25" y="40" width="150" height="30" as="geometry" />
        </mxCell>
        <mxCell id="XOrSZ9edwsyi-NMTMp58-9" value="&lt;h1 style=&quot;margin-top: 0px;&quot;&gt;Invoking Host Functions&lt;/h1&gt;&lt;p&gt;At first, Extism http can be used for all host function calls.&amp;nbsp; This is an MVP solution since it will have higher latency.&lt;/p&gt;&lt;p&gt;Eventually, HTTP idioms can be used to directly invoke the Host Function (build a header KV collection, a method, a path, and query KV collection).&lt;br&gt;&lt;br&gt;Some things can be significantly optimized (eg. it can use MessagePack instead of JSON)&lt;br&gt;&lt;br&gt;Auth can be via something similar to a JWT, but instead of having to sign and verify the signature, the JWT can be trusted since it&#39;s coming from an already verified system&lt;/p&gt;&lt;p&gt;&lt;br&gt;&lt;/p&gt;&lt;p&gt;Forking and rebuilding the generators to not emit a full library and instead build a host interface is in no way MVP, but if using http, can we use it with extism http? test this first.&lt;/p&gt;" style="text;html=1;whiteSpace=wrap;overflow=hidden;rounded=0;" parent="1" vertex="1">
          <mxGeometry x="1210" y="300" width="310" height="340" as="geometry" />
        </mxCell>
        <mxCell id="RBcNmFktHm9wtvDgnnRv-1" value="&lt;h1 style=&quot;margin-top: 0px;&quot;&gt;TypeSpec dependencies&lt;/h1&gt;&lt;p&gt;TypeSpec depends on node. However, typespec will only be used during build processes of the SDKs, it isn&#39;t needed anywhere else&lt;/p&gt;" style="text;html=1;whiteSpace=wrap;overflow=hidden;rounded=0;" parent="1" vertex="1">
          <mxGeometry x="-70" y="300" width="180" height="170" as="geometry" />
        </mxCell>
        <mxCell id="1brl5y2HSanjJ5TNxx6l-1" style="edgeStyle=orthogonalEdgeStyle;rounded=0;orthogonalLoop=1;jettySize=auto;html=1;exitX=1;exitY=0.5;exitDx=0;exitDy=0;entryX=0;entryY=0.5;entryDx=0;entryDy=0;" edge="1" parent="1" source="XOrSZ9edwsyi-NMTMp58-2" target="XOrSZ9edwsyi-NMTMp58-5">
          <mxGeometry relative="1" as="geometry" />
        </mxCell>
        <mxCell id="1brl5y2HSanjJ5TNxx6l-2" value="Generated TypeScript Library" style="swimlane;whiteSpace=wrap;html=1;" vertex="1" parent="1">
          <mxGeometry x="840" y="160" width="200" height="90" as="geometry" />
        </mxCell>
        <mxCell id="1brl5y2HSanjJ5TNxx6l-3" value="ubiquitous.keyvalue" style="rounded=0;whiteSpace=wrap;html=1;" vertex="1" parent="1brl5y2HSanjJ5TNxx6l-2">
          <mxGeometry x="25" y="40" width="150" height="30" as="geometry" />
        </mxCell>
        <mxCell id="1brl5y2HSanjJ5TNxx6l-4" value="TypeScript Spec to Client Generation" style="swimlane;whiteSpace=wrap;html=1;startSize=40;" vertex="1" parent="1">
          <mxGeometry x="590" y="160" width="210" height="100" as="geometry" />
        </mxCell>
        <mxCell id="1brl5y2HSanjJ5TNxx6l-5" value="openapi-fetch" style="rounded=0;whiteSpace=wrap;html=1;" vertex="1" parent="1brl5y2HSanjJ5TNxx6l-4">
          <mxGeometry x="30" y="50" width="150" height="30" as="geometry" />
        </mxCell>
        <mxCell id="1brl5y2HSanjJ5TNxx6l-6" style="edgeStyle=orthogonalEdgeStyle;rounded=0;orthogonalLoop=1;jettySize=auto;html=1;entryX=0;entryY=0.5;entryDx=0;entryDy=0;" edge="1" parent="1" source="1brl5y2HSanjJ5TNxx6l-5" target="1brl5y2HSanjJ5TNxx6l-3">
          <mxGeometry relative="1" as="geometry">
            <mxPoint x="840" y="215" as="targetPoint" />
          </mxGeometry>
        </mxCell>
        <mxCell id="1brl5y2HSanjJ5TNxx6l-8" value="Manual fetch() implementation that works with WASM" style="swimlane;whiteSpace=wrap;html=1;startSize=50;" vertex="1" parent="1">
          <mxGeometry x="840" y="20" width="260" height="110" as="geometry" />
        </mxCell>
        <mxCell id="1brl5y2HSanjJ5TNxx6l-9" value="ubiquitous.host.fetch" style="rounded=0;whiteSpace=wrap;html=1;" vertex="1" parent="1brl5y2HSanjJ5TNxx6l-8">
          <mxGeometry x="55" y="60" width="150" height="30" as="geometry" />
        </mxCell>
        <mxCell id="1brl5y2HSanjJ5TNxx6l-13" style="edgeStyle=orthogonalEdgeStyle;rounded=0;orthogonalLoop=1;jettySize=auto;html=1;exitX=1;exitY=0.5;exitDx=0;exitDy=0;entryX=0;entryY=0.75;entryDx=0;entryDy=0;" edge="1" parent="1" source="1brl5y2HSanjJ5TNxx6l-3" target="XOrSZ9edwsyi-NMTMp58-7">
          <mxGeometry relative="1" as="geometry" />
        </mxCell>
        <mxCell id="1brl5y2HSanjJ5TNxx6l-14" style="edgeStyle=orthogonalEdgeStyle;rounded=0;orthogonalLoop=1;jettySize=auto;html=1;entryX=0;entryY=0.75;entryDx=0;entryDy=0;" edge="1" parent="1" source="1brl5y2HSanjJ5TNxx6l-9" target="XOrSZ9edwsyi-NMTMp58-7">
          <mxGeometry relative="1" as="geometry" />
        </mxCell>
        <mxCell id="1brl5y2HSanjJ5TNxx6l-15" style="edgeStyle=orthogonalEdgeStyle;rounded=0;orthogonalLoop=1;jettySize=auto;html=1;exitX=1;exitY=0.5;exitDx=0;exitDy=0;entryX=0;entryY=0.5;entryDx=0;entryDy=0;" edge="1" parent="1" source="XOrSZ9edwsyi-NMTMp58-5" target="1brl5y2HSanjJ5TNxx6l-5">
          <mxGeometry relative="1" as="geometry" />
        </mxCell>
        <mxCell id="1brl5y2HSanjJ5TNxx6l-16" value="TypeScript&lt;div&gt;&lt;br&gt;&lt;/div&gt;&lt;div&gt;openapi-spec-generator is verbose output and each lib is generated by separate OSS maintainers using templating, so it&#39;s not super flexible&lt;/div&gt;&lt;div&gt;openapi-fetch is simpler and has no runtime overhead, but it only supports typescript&lt;/div&gt;&lt;div&gt;Kiota is generic and works for multiple languages. it&#39;s all by MS so it&#39;s consistent in its implementation patterns&lt;/div&gt;" style="text;html=1;whiteSpace=wrap;overflow=hidden;rounded=0;" vertex="1" parent="1">
          <mxGeometry x="650" y="450" width="320" height="160" as="geometry" />
        </mxCell>
      </root>
    </mxGraphModel>
  </diagram>
  <diagram id="7f8iobY8OoH01U9T2qSn" name="KeyValue API">
    <mxGraphModel dx="562" dy="335" grid="1" gridSize="10" guides="1" tooltips="1" connect="1" arrows="1" fold="1" page="1" pageScale="1" pageWidth="850" pageHeight="1100" math="0" shadow="0">
      <root>
        <mxCell id="0" />
        <mxCell id="1" parent="0" />
        <mxCell id="ZxIOATwJ7DKgm4P_tdce-2" value="Methods" style="swimlane;whiteSpace=wrap;html=1;" vertex="1" parent="1">
          <mxGeometry x="120" y="120" width="400" height="330" as="geometry" />
        </mxCell>
        <mxCell id="ZxIOATwJ7DKgm4P_tdce-3" value="Add" style="swimlane;fontStyle=0;childLayout=stackLayout;horizontal=1;startSize=30;horizontalStack=0;resizeParent=1;resizeParentMax=0;resizeLast=0;collapsible=1;marginBottom=0;whiteSpace=wrap;html=1;" vertex="1" parent="ZxIOATwJ7DKgm4P_tdce-2">
          <mxGeometry x="240" y="40" width="140" height="120" as="geometry" />
        </mxCell>
        <mxCell id="ZxIOATwJ7DKgm4P_tdce-11" value="string Partition" style="text;strokeColor=none;fillColor=none;align=left;verticalAlign=middle;spacingLeft=4;spacingRight=4;overflow=hidden;points=[[0,0.5],[1,0.5]];portConstraint=eastwest;rotatable=0;whiteSpace=wrap;html=1;" vertex="1" parent="ZxIOATwJ7DKgm4P_tdce-3">
          <mxGeometry y="30" width="140" height="30" as="geometry" />
        </mxCell>
        <mxCell id="ZxIOATwJ7DKgm4P_tdce-4" value="string Key" style="text;strokeColor=none;fillColor=none;align=left;verticalAlign=middle;spacingLeft=4;spacingRight=4;overflow=hidden;points=[[0,0.5],[1,0.5]];portConstraint=eastwest;rotatable=0;whiteSpace=wrap;html=1;" vertex="1" parent="ZxIOATwJ7DKgm4P_tdce-3">
          <mxGeometry y="60" width="140" height="30" as="geometry" />
        </mxCell>
        <mxCell id="ZxIOATwJ7DKgm4P_tdce-5" value="string Value" style="text;strokeColor=none;fillColor=none;align=left;verticalAlign=middle;spacingLeft=4;spacingRight=4;overflow=hidden;points=[[0,0.5],[1,0.5]];portConstraint=eastwest;rotatable=0;whiteSpace=wrap;html=1;" vertex="1" parent="ZxIOATwJ7DKgm4P_tdce-3">
          <mxGeometry y="90" width="140" height="30" as="geometry" />
        </mxCell>
        <mxCell id="ZxIOATwJ7DKgm4P_tdce-7" value="Get" style="swimlane;fontStyle=0;childLayout=stackLayout;horizontal=1;startSize=30;horizontalStack=0;resizeParent=1;resizeParentMax=0;resizeLast=0;collapsible=1;marginBottom=0;whiteSpace=wrap;html=1;" vertex="1" parent="ZxIOATwJ7DKgm4P_tdce-2">
          <mxGeometry x="60" y="160" width="140" height="90" as="geometry" />
        </mxCell>
        <mxCell id="ZxIOATwJ7DKgm4P_tdce-8" value="string Key" style="text;strokeColor=none;fillColor=none;align=left;verticalAlign=middle;spacingLeft=4;spacingRight=4;overflow=hidden;points=[[0,0.5],[1,0.5]];portConstraint=eastwest;rotatable=0;whiteSpace=wrap;html=1;" vertex="1" parent="ZxIOATwJ7DKgm4P_tdce-7">
          <mxGeometry y="30" width="140" height="30" as="geometry" />
        </mxCell>
        <mxCell id="ZxIOATwJ7DKgm4P_tdce-9" value="string Value" style="text;strokeColor=none;fillColor=none;align=left;verticalAlign=middle;spacingLeft=4;spacingRight=4;overflow=hidden;points=[[0,0.5],[1,0.5]];portConstraint=eastwest;rotatable=0;whiteSpace=wrap;html=1;" vertex="1" parent="ZxIOATwJ7DKgm4P_tdce-7">
          <mxGeometry y="60" width="140" height="30" as="geometry" />
        </mxCell>
        <mxCell id="ZxIOATwJ7DKgm4P_tdce-13" value="&lt;h1 style=&quot;margin-top: 0px;&quot;&gt;Tenancy&lt;/h1&gt;&lt;p&gt;every call should carry tenancy information, in addition to authn/authz.&amp;nbsp; perhaps the tenant can be part of the jwt token in the header.&amp;nbsp; that way it can be&amp;nbsp;&lt;/p&gt;" style="text;html=1;whiteSpace=wrap;overflow=hidden;rounded=0;" vertex="1" parent="1">
          <mxGeometry x="550" y="120" width="180" height="120" as="geometry" />
        </mxCell>
      </root>
    </mxGraphModel>
  </diagram>
</mxfile>
